# xmcd
# 
# Track frame offsets:
#     150
#     19209
#     41176
#     65213
#     85469
#     107470
#     129601
#     142777
#     155880
#     173232
#     209533
#     234092
# 
# Disc length: 3651
# 
# Revision: 3
# Processed by: cddbd v1.5.2PL0 Copyright (c) Steve Scherf et al.
# Submitted via: BonkEnc v1.0.8
# 
DISCID=aa0e410c
DTITLE=Grandmaster Flash - Flash Is Back
DYEAR=1998
DGENRE=Hip-Hop
TTITLE0=Groove To Get Down
TTITLE1=Gotta Get Busy
TTITLE2=Whatever The Hell It's Working
TTITLE3=This Is The Way
TTITLE4=Sex On The Scratch
TTITLE5=Coolcuts
TTITLE6=Let's Have Some Action
TTITLE7=Brothers Be Fronting
TTITLE8=Flashes Theme
TTITLE9=Little Bit of Flash (Midfield General Skint Mix)
TTITLE10=Flash Is Back (Danielson For Skint Mix)
TTITLE11=Dance To The Beat (Grandmaster Flash VS Stretch and Vern)
EXTD=YEAR: 1998
EXTT0=
EXTT1=
EXTT2=
EXTT3=
EXTT4=
EXTT5=
EXTT6=
EXTT7=
EXTT8=
EXTT9=
EXTT10=
EXTT11=
PLAYORDER=
